####
#
#	OBJ File Generated by LightWave3D
#	LightWave3D OBJ Export v2.3
#
####
o Carretera_CurvaAmpliaInferior_Mesh.obj
mtllib Carretera_CurvaAmpliaInferior_Mesh.mtl
g default
v 0.4 -1 -0
v -0.4 -1 -0
v 0.4 0 -0
v -0.4 0 -0
v -0.402283 0 -0.0522934
v -0.402283 -1 -0.0522934
v 0.394673 -1 -0.122018
v 0.394673 0 -0.122018
v -0.409115 0 -0.104189
v -0.409115 -1 -0.104189
v 0.378731 -1 -0.243107
v 0.378731 0 -0.243107
v -0.420444 0 -0.155291
v -0.420444 -1 -0.155291
v 0.352296 -1 -0.362347
v 0.352296 0 -0.362347
v -0.436184 0 -0.205212
v -0.436184 -1 -0.205212
v 0.31557 -1 -0.478828
v 0.31557 0 -0.478828
v -0.456215 0 -0.253571
v -0.456215 -1 -0.253571
v 0.268831 -1 -0.591666
v 0.268831 0 -0.591666
v -0.480385 0 -0.3
v -0.480385 -1 -0.3
v 0.212436 -1 -0.7
v 0.212436 0 -0.7
v -0.508509 0 -0.344146
v -0.508509 -1 -0.344146
v 0.146813 -1 -0.803007
v 0.146813 0 -0.803007
v -0.540373 0 -0.385673
v -0.540373 -1 -0.385673
v 0.0724622 -1 -0.899903
v 0.0724622 0 -0.899903
v -0.575736 0 -0.424264
v -0.575736 -1 -0.424264
v -0.0100505 -1 -0.989949
v -0.0100505 0 -0.989949
v -0.614327 0 -0.459627
v -0.614327 -1 -0.459627
v -0.100097 -1 -1.07246
v -0.100097 0 -1.07246
v -0.655854 0 -0.491491
v -0.655854 -1 -0.491491
v -0.196993 -1 -1.14681
v -0.196993 0 -1.14681
v -0.7 0 -0.519615
v -0.7 -1 -0.519615
v -0.3 -1 -1.21244
v -0.3 0 -1.21244
v -0.746429 0 -0.543785
v -0.746429 -1 -0.543785
v -0.408334 -1 -1.26883
v -0.408334 0 -1.26883
v -0.794788 0 -0.563816
v -0.794788 -1 -0.563816
v -0.521172 -1 -1.31557
v -0.521172 0 -1.31557
v -0.844709 0 -0.579556
v -0.844709 -1 -0.579556
v -0.637653 -1 -1.3523
v -0.637653 0 -1.3523
v -0.895811 0 -0.590885
v -0.895811 -1 -0.590885
v -0.756893 -1 -1.37873
v -0.756893 0 -1.37873
v -0.947707 0 -0.597717
v -0.947707 -1 -0.597717
v -0.877982 -1 -1.39467
v -0.877982 0 -1.39467
v -1 0 -0.6
v -1 -1 -0.6
v -1 -1 -1.4
v -1 0 -1.4
v -1 0 -0.6
v -1 -1 -0.6
v -1 -1 -1.4
v -1 0 -1.4
vt 0 0.98
vt 1 0.98
vn -0.999048 0 0.0436195
vn -0.996195 0 0.0871557
vn -0.996195 0 0.0871557
vn -0.999048 0 0.0436195
vn 0.999048 0 -0.0436195
vn 0.996195 0 -0.0871557
vn 0.996195 0 -0.0871557
vn 0.999048 0 -0.0436195
vn -0.996195 0 0.0871557
vn -0.984808 0 0.173648
vn -0.984808 0 0.173648
vn -0.996195 0 0.0871557
vn 0.996195 0 -0.0871557
vn 0.984808 0 -0.173648
vn 0.984808 0 -0.173648
vn 0.996195 0 -0.0871557
vn -0.984808 0 0.173648
vn -0.965926 0 0.258819
vn -0.965926 0 0.258819
vn -0.984808 0 0.173648
vn 0.984808 0 -0.173648
vn 0.965926 0 -0.258819
vn 0.965926 0 -0.258819
vn 0.984808 0 -0.173648
vn -0.965926 0 0.258819
vn -0.939693 0 0.34202
vn -0.939693 0 0.34202
vn -0.965926 0 0.258819
vn 0.965926 0 -0.258819
vn 0.939693 0 -0.34202
vn 0.939693 0 -0.34202
vn 0.965926 0 -0.258819
vn -0.939693 0 0.34202
vn -0.906308 0 0.422618
vn -0.906308 0 0.422618
vn -0.939693 0 0.34202
vn 0.939693 0 -0.34202
vn 0.906308 0 -0.422618
vn 0.906308 0 -0.422618
vn 0.939693 0 -0.34202
vn -0.906308 0 0.422618
vn -0.866025 0 0.5
vn -0.866025 0 0.5
vn -0.906308 0 0.422618
vn 0.906308 0 -0.422618
vn 0.866025 0 -0.5
vn 0.866025 0 -0.5
vn 0.906308 0 -0.422618
vn -0.866025 0 0.5
vn -0.819152 0 0.573577
vn -0.819152 0 0.573577
vn -0.866025 0 0.5
vn 0.866025 0 -0.5
vn 0.819152 0 -0.573576
vn 0.819152 0 -0.573576
vn 0.866025 0 -0.5
vn -0.819152 0 0.573577
vn -0.766044 0 0.642788
vn -0.766044 0 0.642788
vn -0.819152 0 0.573577
vn 0.819152 0 -0.573576
vn 0.766044 0 -0.642788
vn 0.766044 0 -0.642788
vn 0.819152 0 -0.573576
vn -0.766044 0 0.642788
vn -0.707107 0 0.707107
vn -0.707107 0 0.707107
vn -0.766044 0 0.642788
vn 0.766044 0 -0.642788
vn 0.707107 0 -0.707107
vn 0.707107 0 -0.707107
vn 0.766044 0 -0.642788
vn -0.707107 0 0.707107
vn -0.642788 0 0.766044
vn -0.642788 0 0.766044
vn -0.707107 0 0.707107
vn 0.707107 0 -0.707107
vn 0.642788 0 -0.766045
vn 0.642788 0 -0.766045
vn 0.707107 0 -0.707107
vn -0.642788 0 0.766044
vn -0.573576 0 0.819152
vn -0.573576 0 0.819152
vn -0.642788 0 0.766044
vn 0.642788 0 -0.766045
vn 0.573576 0 -0.819152
vn 0.573576 0 -0.819152
vn 0.642788 0 -0.766045
vn -0.573576 0 0.819152
vn -0.5 0 0.866025
vn -0.5 0 0.866025
vn -0.573576 0 0.819152
vn 0.573576 0 -0.819152
vn 0.5 0 -0.866026
vn 0.5 0 -0.866026
vn 0.573576 0 -0.819152
vn -0.5 0 0.866025
vn -0.422619 0 0.906308
vn -0.422619 0 0.906308
vn -0.5 0 0.866025
vn 0.5 0 -0.866026
vn 0.422618 0 -0.906308
vn 0.422618 0 -0.906308
vn 0.5 0 -0.866026
vn -0.422619 0 0.906308
vn -0.34202 0 0.939693
vn -0.34202 0 0.939693
vn -0.422619 0 0.906308
vn 0.422618 0 -0.906308
vn 0.34202 0 -0.939693
vn 0.34202 0 -0.939693
vn 0.422618 0 -0.906308
vn -0.34202 0 0.939693
vn -0.258819 0 0.965926
vn -0.258819 0 0.965926
vn -0.34202 0 0.939693
vn 0.34202 0 -0.939693
vn 0.258819 0 -0.965926
vn 0.258819 0 -0.965926
vn 0.34202 0 -0.939693
vn -0.258819 0 0.965926
vn -0.173649 0 0.984808
vn -0.173649 0 0.984808
vn -0.258819 0 0.965926
vn 0.258819 0 -0.965926
vn 0.173648 0 -0.984808
vn 0.173648 0 -0.984808
vn 0.258819 0 -0.965926
vn -0.173649 0 0.984808
vn -0.0871557 0 0.996195
vn -0.0871557 0 0.996195
vn -0.173649 0 0.984808
vn 0.173648 0 -0.984808
vn 0.087156 0 -0.996195
vn 0.087156 0 -0.996195
vn 0.173648 0 -0.984808
vn -0.0871557 0 0.996195
vn -0.0436189 0 0.999048
vn -0.0436189 0 0.999048
vn -0.0871557 0 0.996195
vn 0.087156 0 -0.996195
vn 0.0436197 0 -0.999048
vn 0.0436197 0 -0.999048
vn 0.087156 0 -0.996195
vn -0.0436189 0 0.999048
vn -0.0436189 0 0.999048
vn 0.0436197 0 -0.999048
vn 0.0436197 0 -0.999048
g Default
usemtl Default
s off
f 4/1/1 5/1/2 6/1/3 2/1/4
f 1/2/5 7/2/6 8/2/7 3/2/8
f 5/1/9 9/1/10 10/1/11 6/1/12
f 7/2/13 11/2/14 12/2/15 8/2/16
f 9/1/17 13/1/18 14/1/19 10/1/20
f 11/2/21 15/2/22 16/2/23 12/2/24
f 13/1/25 17/1/26 18/1/27 14/1/28
f 15/2/29 19/2/30 20/2/31 16/2/32
f 17/1/33 21/1/34 22/1/35 18/1/36
f 19/2/37 23/2/38 24/2/39 20/2/40
f 21/1/41 25/1/42 26/1/43 22/1/44
f 23/2/45 27/2/46 28/2/47 24/2/48
f 25/1/49 29/1/50 30/1/51 26/1/52
f 27/2/53 31/2/54 32/2/55 28/2/56
f 29/1/57 33/1/58 34/1/59 30/1/60
f 31/2/61 35/2/62 36/2/63 32/2/64
f 33/1/65 37/1/66 38/1/67 34/1/68
f 35/2/69 39/2/70 40/2/71 36/2/72
f 37/1/73 41/1/74 42/1/75 38/1/76
f 39/2/77 43/2/78 44/2/79 40/2/80
f 41/1/81 45/1/82 46/1/83 42/1/84
f 43/2/85 47/2/86 48/2/87 44/2/88
f 45/1/89 49/1/90 50/1/91 46/1/92
f 47/2/93 51/2/94 52/2/95 48/2/96
f 49/1/97 53/1/98 54/1/99 50/1/100
f 51/2/101 55/2/102 56/2/103 52/2/104
f 53/1/105 57/1/106 58/1/107 54/1/108
f 55/2/109 59/2/110 60/2/111 56/2/112
f 57/1/113 61/1/114 62/1/115 58/1/116
f 59/2/117 63/2/118 64/2/119 60/2/120
f 61/1/121 65/1/122 66/1/123 62/1/124
f 63/2/125 67/2/126 68/2/127 64/2/128
f 65/1/129 69/1/130 70/1/131 66/1/132
f 67/2/133 71/2/134 72/2/135 68/2/136
f 69/1/137 73/1/138 74/1/139 70/1/140
f 71/2/141 75/2/142 76/2/143 72/2/144
f 73/1/145 77/1 78/1 74/1/146
f 75/2/147 79/2 80/2 76/2/148
