####
#
#	OBJ File Generated by LightWave3D
#	LightWave3D OBJ Export v2.3
#
####
o Carretera_RectaSuperior_Mesh.obj
mtllib Carretera_RectaSuperior_Mesh.mtl
g default
v -0.384 0.1 0.5
v -0.4 0.084 0.5
v 0.4 0.084 0.5
v 0.384 0.1 0.5
v 0.4 0.084 -0.5
v 0.384 0.1 -0.5
v -0.4 0.084 -0.5
v -0.384 0.1 -0.5
v -0.390228 0.0987428 0.5
v -0.395314 0.095314 0.5
v -0.398743 0.0902283 0.5
v 0.398743 0.0902283 0.5
v 0.395314 0.095314 0.5
v 0.390228 0.0987428 0.5
v 0.390228 0.0987428 -0.5
v 0.395314 0.095314 -0.5
v 0.398743 0.0902283 -0.5
v -0.398743 0.0902283 -0.5
v -0.395314 0.095314 -0.5
v -0.390228 0.0987428 -0.5
v 0.4 0 0.5
v 0.4 0 -0.5
v -0.4 0 0.5
v -0.4 0 -0.5
vt 0 0.02
vt 0 0.98
vt 0.00157157 0.02
vt 0.00157157 0.98
vt 0.0058575 0.02
vt 0.0058575 0.98
vt 0.0122147 0.02
vt 0.0122147 0.98
vt 0.02 0.02
vt 0.02 0.98
vt 0.98 0.02
vt 0.98 0.98
vt 0.987785 0.02
vt 0.987785 0.98
vt 0.994143 0.02
vt 0.994143 0.98
vt 0.998428 0.02
vt 0.998428 0.98
vt 1 0.02
vt 1 0.98
vn 0.0994284 0.995045 -0
vn 0.0994284 0.995045 -0
vn -0.0994284 0.995045 -0
vn -0.0994284 0.995045 -0
vn 0.995045 0.0994298 -0
vn 0.922539 0.385905 -0
vn 0.922539 0.385905 -0
vn 0.995045 0.0994298 -0
vn 0.922539 0.385905 -0
vn 0.707107 0.707106 -0
vn 0.707107 0.707106 -0
vn 0.922539 0.385905 -0
vn -0.995045 0.0994298 -0
vn -0.922539 0.385905 -0
vn -0.922539 0.385905 -0
vn -0.995045 0.0994298 -0
vn -0.922539 0.385905 -0
vn -0.707107 0.707106 -0
vn -0.707107 0.707106 -0
vn -0.922539 0.385905 -0
vn -0.0994284 0.995045 -0
vn -0.385904 0.922539 -0
vn -0.385904 0.922539 -0
vn -0.0994284 0.995045 -0
vn -0.385904 0.922539 -0
vn -0.707107 0.707106 -0
vn -0.707107 0.707106 -0
vn -0.385904 0.922539 -0
vn 0.0994284 0.995045 -0
vn 0.385904 0.922539 -0
vn 0.385904 0.922539 -0
vn 0.0994284 0.995045 -0
vn 0.385904 0.922539 -0
vn 0.707107 0.707106 -0
vn 0.707107 0.707106 -0
vn 0.385904 0.922539 -0
vn 0.995045 0.0994298 -0
vn 1 0 -0
vn 1 0 -0
vn 0.995045 0.0994298 -0
vn -1 0 -0
vn -1 0 -0
vn -0.995045 0.0994298 -0
vn -0.995045 0.0994298 -0
g Default
usemtl Default
s off
f 4/11/1 6/12/2 8/10/3 1/9/4
f 5/20/5 17/18/6 12/17/7 3/19/8
f 17/18/9 16/16/10 13/15/11 12/17/12
f 2/1/13 11/3/14 18/4/15 7/2/16
f 11/3/17 10/5/18 19/6/19 18/4/20
f 8/10/21 20/8/22 9/7/23 1/9/24
f 20/8/25 19/6/26 10/5/27 9/7/28
f 4/11/29 14/13/30 15/14/31 6/12/32
f 14/13/33 13/15/34 16/16/35 15/14/36
f 3/19/37 21/19/38 22/20/39 5/20/40
f 24/2/41 23/1/42 2/1/43 7/2/44
