####
#
#	OBJ File Generated by LightWave3D
#	LightWave3D OBJ Export v2.3
#
####
o Carretera_InicioSuperior_Mesh.obj
mtllib Carretera_InicioSuperior_Mesh.mtl
g default
v 0.4 0.084 -4.89859e-017
v 0.384 0.1 -4.70264e-017
v 0.398743 0.0902283 -4.88319e-017
v 0.395314 0.095314 -4.8412e-017
v 0.390228 0.0987428 -4.77892e-017
v 0.379093 0.1 0.0372699
v 0.390022 0.095314 0.0401982
v 0.385109 0.0987428 0.0388819
v 0.393334 0.0902283 0.0410856
v 0.394548 0.084 0.041411
v 0.364708 0.1 0.072
v 0.374506 0.095314 0.077657
v 0.370101 0.0987428 0.0751141
v 0.377475 0.0902283 0.0793714
v 0.378564 0.084 0.08
v 0.341823 0.1 0.101823
v 0.349824 0.095314 0.109824
v 0.346227 0.0987428 0.106227
v 0.352248 0.0902283 0.112248
v 0.353137 0.084 0.113137
v 0.312 0.1 0.124708
v 0.317657 0.095314 0.134506
v 0.315114 0.0987428 0.130101
v 0.319371 0.0902283 0.137475
v 0.32 0.084 0.138564
v 0.27727 0.1 0.139093
v 0.280198 0.095314 0.150022
v 0.278882 0.0987428 0.145109
v 0.281086 0.0902283 0.153334
v 0.281411 0.084 0.154548
v 0.24 0.1 0.144
v 0.24 0.095314 0.155314
v 0.24 0.0987428 0.150228
v 0.24 0.0902283 0.158743
v 0.24 0.084 0.16
v 0.24 0.1 -2.93915e-017
v -0.4 0.084 4.89859e-017
v -0.384 0.1 4.70264e-017
v -0.398743 0.0902283 4.88319e-017
v -0.395314 0.095314 4.8412e-017
v -0.390228 0.0987428 4.77892e-017
v -0.379093 0.1 0.0372699
v -0.390022 0.095314 0.0401982
v -0.385109 0.0987428 0.0388819
v -0.393334 0.0902283 0.0410856
v -0.394548 0.084 0.041411
v -0.364708 0.1 0.072
v -0.374506 0.095314 0.077657
v -0.370101 0.0987428 0.0751141
v -0.377475 0.0902283 0.0793714
v -0.378564 0.084 0.08
v -0.341823 0.1 0.101823
v -0.349824 0.095314 0.109824
v -0.346227 0.0987428 0.106227
v -0.352248 0.0902283 0.112248
v -0.353137 0.084 0.113137
v -0.312 0.1 0.124708
v -0.317657 0.095314 0.134506
v -0.315114 0.0987428 0.130101
v -0.319371 0.0902283 0.137475
v -0.32 0.084 0.138564
v -0.27727 0.1 0.139093
v -0.280198 0.095314 0.150022
v -0.278882 0.0987428 0.145109
v -0.281086 0.0902283 0.153334
v -0.281411 0.084 0.154548
v -0.24 0.1 0.144
v -0.24 0.095314 0.155314
v -0.24 0.0987428 0.150228
v -0.24 0.0902283 0.158743
v -0.24 0.084 0.16
v -0.24 0.1 2.93915e-017
v 0.4 0 -4.89859e-017
v 0.394548 0 0.041411
v -0.4 0 4.89859e-017
v -0.394548 0 0.041411
v 0.378564 0 0.08
v -0.378564 0 0.08
v 0.353137 0 0.113137
v -0.353137 0 0.113137
v 0.32 0 0.138564
v -0.32 0 0.138564
v 0.281411 0 0.154548
v 0.24 0 0.16
v -0.281411 0 0.154548
v -0.24 0 0.16
vt 0 1
vt 0.00157157 1
vt 0.0058575 1
vt 0.00681484 0.741181
vt 0.00833285 0.743215
vt 0.0122147 1
vt 0.0124727 0.748761
vt 0.0186133 0.756988
vt 0.02 1
vt 0.0261334 0.767063
vt 0.0267949 0.5
vt 0.0281559 0.503929
vt 0.0318677 0.514644
vt 0.0373732 0.530537
vt 0.0441154 0.55
vt 0.0585786 0.292893
vt 0.0596899 0.29845
vt 0.0627205 0.313603
vt 0.0672157 0.336079
vt 0.0727208 0.363604
vt 0.1 0.133975
vt 0.100786 0.14078
vt 0.102929 0.159338
vt 0.106107 0.186866
vt 0.11 0.220577
vt 0.148236 0.0340742
vt 0.148643 0.0416643
vt 0.149752 0.0623637
vt 0.151398 0.0930667
vt 0.153413 0.130667
vt 0.2 0
vt 0.2 0.0292875
vt 0.2 0.0610735
vt 0.2 0.1
vt 0.2 1
vt 0.2 0.0078579
vt 0.8 0.0078579
vt 0.8 0
vt 0.8 0.0292875
vt 0.8 0.0610735
vt 0.8 0.1
vt 0.8 1
vt 0.846587 0.130667
vt 0.848602 0.0930667
vt 0.850248 0.0623637
vt 0.851357 0.0416643
vt 0.851764 0.0340742
vt 0.89 0.220577
vt 0.893893 0.186866
vt 0.897071 0.159338
vt 0.899214 0.14078
vt 0.9 0.133975
vt 0.927279 0.363604
vt 0.932784 0.336079
vt 0.937279 0.313603
vt 0.94031 0.29845
vt 0.941421 0.292893
vt 0.955885 0.55
vt 0.962627 0.530537
vt 0.968132 0.514644
vt 0.971844 0.503929
vt 0.973205 0.5
vt 0.973867 0.767063
vt 0.98 1
vt 0.981387 0.756988
vt 0.987527 0.748761
vt 0.987785 1
vt 0.991667 0.743215
vt 0.993185 0.741181
vt 0.994143 1
vt 0.998428 1
vt 1 1
vn 0 1 -0
vn 0.0960239 0.995046 0.0257295
vn 0.099403 0.994961 0.0130867
vn 0.372545 0.92263 0.0998233
vn 0.682799 0.707328 0.182955
vn 0.703844 0.704285 0.0926628
vn 0.385191 0.921443 0.0507111
vn 0.0960239 0.995046 0.0257295
vn 0.372545 0.92263 0.0998233
vn 0.385191 0.921443 0.0507111
vn 0.099403 0.994961 0.0130867
vn 0.682799 0.707328 0.182955
vn 0.891017 0.386119 0.238747
vn 0.915721 0.383304 0.120557
vn 0.703844 0.704285 0.0926628
vn 0.891017 0.386119 0.238747
vn 0.961138 0.0994448 0.257536
vn 0.986613 0.098604 0.12989
vn 0.915721 0.383304 0.120557
vn 0 1 -0
vn 0.0860926 0.995046 0.0497056
vn 0.0960239 0.995046 0.0257295
vn 0.334015 0.92263 0.192844
vn 0.61218 0.707329 0.353442
vn 0.682799 0.707328 0.182955
vn 0.372545 0.92263 0.0998233
vn 0.0860926 0.995046 0.0497056
vn 0.334015 0.92263 0.192844
vn 0.372545 0.92263 0.0998233
vn 0.0960239 0.995046 0.0257295
vn 0.61218 0.707329 0.353442
vn 0.798864 0.386119 0.461224
vn 0.891017 0.386119 0.238747
vn 0.682799 0.707328 0.182955
vn 0.798864 0.386119 0.461224
vn 0.861733 0.0994435 0.497522
vn 0.961138 0.0994448 0.257536
vn 0.891017 0.386119 0.238747
vn 0 1 -0
vn 0.0702945 0.995046 0.0702945
vn 0.0860926 0.995046 0.0497056
vn 0.272722 0.92263 0.272722
vn 0.499843 0.707329 0.499843
vn 0.61218 0.707329 0.353442
vn 0.334015 0.92263 0.192844
vn 0.0702945 0.995046 0.0702945
vn 0.272722 0.92263 0.272722
vn 0.334015 0.92263 0.192844
vn 0.0860926 0.995046 0.0497056
vn 0.499843 0.707329 0.499843
vn 0.65227 0.386119 0.65227
vn 0.798864 0.386119 0.461224
vn 0.61218 0.707329 0.353442
vn 0.65227 0.386119 0.65227
vn 0.703602 0.0994442 0.703602
vn 0.861733 0.0994435 0.497522
vn 0.798864 0.386119 0.461224
vn 0 1 -0
vn 0.0497058 0.995046 0.086093
vn 0.0702945 0.995046 0.0702945
vn 0.192843 0.92263 0.334014
vn 0.353443 0.707328 0.61218
vn 0.499843 0.707329 0.499843
vn 0.272722 0.92263 0.272722
vn 0.0497058 0.995046 0.086093
vn 0.192843 0.92263 0.334014
vn 0.272722 0.92263 0.272722
vn 0.0702945 0.995046 0.0702945
vn 0.353443 0.707328 0.61218
vn 0.461224 0.386119 0.798864
vn 0.65227 0.386119 0.65227
vn 0.499843 0.707329 0.499843
vn 0.461224 0.386119 0.798864
vn 0.497522 0.0994453 0.861733
vn 0.703602 0.0994442 0.703602
vn 0.65227 0.386119 0.65227
vn 0 1 -0
vn 0.0257296 0.995046 0.0960242
vn 0.0497058 0.995046 0.086093
vn 0.099823 0.92263 0.372544
vn 0.182955 0.707328 0.682799
vn 0.353443 0.707328 0.61218
vn 0.192843 0.92263 0.334014
vn 0.0257296 0.995046 0.0960242
vn 0.099823 0.92263 0.372544
vn 0.192843 0.92263 0.334014
vn 0.0497058 0.995046 0.086093
vn 0.182955 0.707328 0.682799
vn 0.238747 0.386119 0.891017
vn 0.461224 0.386119 0.798864
vn 0.353443 0.707328 0.61218
vn 0.238747 0.386119 0.891017
vn 0.257536 0.0994456 0.961138
vn 0.497522 0.0994453 0.861733
vn 0.461224 0.386119 0.798864
vn 0 1 -0
vn 0.00654322 0.995024 0.0994179
vn 0.0257296 0.995046 0.0960242
vn 0.0253609 0.922288 0.385671
vn 0.0463813 0.706456 0.706235
vn 0.182955 0.707328 0.682799
vn 0.099823 0.92263 0.372544
vn 0.00654322 0.995024 0.0994179
vn 0.0253609 0.922288 0.385671
vn 0.099823 0.92263 0.372544
vn 0.0257296 0.995046 0.0960242
vn 0.0463813 0.706456 0.706235
vn 0.0603956 0.385307 0.92081
vn 0.238747 0.386119 0.891017
vn 0.182955 0.707328 0.682799
vn 0.0603956 0.385307 0.92081
vn 0.0650858 0.0992261 0.992934
vn 0.257536 0.0994456 0.961138
vn 0.238747 0.386119 0.891017
vn -0.0960239 0.995046 0.0257295
vn 0 1 -0
vn -0.099403 0.994961 0.0130867
vn -0.703844 0.704285 0.0926628
vn -0.682799 0.707328 0.182955
vn -0.372545 0.92263 0.0998233
vn -0.385191 0.921443 0.0507111
vn -0.385191 0.921443 0.0507111
vn -0.372545 0.92263 0.0998233
vn -0.0960239 0.995046 0.0257295
vn -0.099403 0.994961 0.0130867
vn -0.915721 0.383304 0.120557
vn -0.891017 0.38612 0.238747
vn -0.682799 0.707328 0.182955
vn -0.703844 0.704285 0.0926628
vn -0.986613 0.098604 0.12989
vn -0.961138 0.0994448 0.257536
vn -0.891017 0.38612 0.238747
vn -0.915721 0.383304 0.120557
vn -0.0860926 0.995046 0.0497056
vn 0 1 -0
vn -0.0960239 0.995046 0.0257295
vn -0.682799 0.707328 0.182955
vn -0.61218 0.707329 0.353442
vn -0.334015 0.92263 0.192844
vn -0.372545 0.92263 0.0998233
vn -0.372545 0.92263 0.0998233
vn -0.334015 0.92263 0.192844
vn -0.0860926 0.995046 0.0497056
vn -0.0960239 0.995046 0.0257295
vn -0.891017 0.38612 0.238747
vn -0.798864 0.386119 0.461224
vn -0.61218 0.707329 0.353442
vn -0.682799 0.707328 0.182955
vn -0.961138 0.0994448 0.257536
vn -0.861733 0.0994435 0.497522
vn -0.798864 0.386119 0.461224
vn -0.891017 0.38612 0.238747
vn -0.0702945 0.995046 0.0702945
vn 0 1 -0
vn -0.0860926 0.995046 0.0497056
vn -0.61218 0.707329 0.353442
vn -0.499843 0.707329 0.499843
vn -0.272722 0.92263 0.272722
vn -0.334015 0.92263 0.192844
vn -0.334015 0.92263 0.192844
vn -0.272722 0.92263 0.272722
vn -0.0702945 0.995046 0.0702945
vn -0.0860926 0.995046 0.0497056
vn -0.798864 0.386119 0.461224
vn -0.65227 0.386119 0.65227
vn -0.499843 0.707329 0.499843
vn -0.61218 0.707329 0.353442
vn -0.861733 0.0994435 0.497522
vn -0.703602 0.0994442 0.703602
vn -0.65227 0.386119 0.65227
vn -0.798864 0.386119 0.461224
vn -0.0497058 0.995046 0.086093
vn 0 1 -0
vn -0.0702945 0.995046 0.0702945
vn -0.499843 0.707329 0.499843
vn -0.353443 0.707328 0.61218
vn -0.192843 0.92263 0.334014
vn -0.272722 0.92263 0.272722
vn -0.272722 0.92263 0.272722
vn -0.192843 0.92263 0.334014
vn -0.0497058 0.995046 0.086093
vn -0.0702945 0.995046 0.0702945
vn -0.65227 0.386119 0.65227
vn -0.461224 0.386119 0.798864
vn -0.353443 0.707328 0.61218
vn -0.499843 0.707329 0.499843
vn -0.703602 0.0994442 0.703602
vn -0.497522 0.0994453 0.861733
vn -0.461224 0.386119 0.798864
vn -0.65227 0.386119 0.65227
vn -0.0257296 0.995046 0.0960242
vn 0 1 -0
vn -0.0497058 0.995046 0.086093
vn -0.353443 0.707328 0.61218
vn -0.182955 0.707328 0.682799
vn -0.099823 0.92263 0.372544
vn -0.192843 0.92263 0.334014
vn -0.192843 0.92263 0.334014
vn -0.099823 0.92263 0.372544
vn -0.0257296 0.995046 0.0960242
vn -0.0497058 0.995046 0.086093
vn -0.461224 0.386119 0.798864
vn -0.238747 0.386119 0.891017
vn -0.182955 0.707328 0.682799
vn -0.353443 0.707328 0.61218
vn -0.497522 0.0994453 0.861733
vn -0.257536 0.0994456 0.961138
vn -0.238747 0.386119 0.891017
vn -0.461224 0.386119 0.798864
vn -0.00654322 0.995024 0.0994179
vn 0 1 -0
vn -0.0257296 0.995046 0.0960242
vn -0.182955 0.707328 0.682799
vn -0.0463813 0.706456 0.706235
vn -0.0253609 0.922288 0.385671
vn -0.099823 0.92263 0.372544
vn -0.099823 0.92263 0.372544
vn -0.0253609 0.922288 0.385671
vn -0.00654322 0.995024 0.0994179
vn -0.0257296 0.995046 0.0960242
vn -0.238747 0.386119 0.891017
vn -0.0603956 0.385307 0.92081
vn -0.0463813 0.706456 0.706235
vn -0.182955 0.707328 0.682799
vn -0.257536 0.0994456 0.961138
vn -0.0650858 0.0992261 0.992934
vn -0.0603956 0.385307 0.92081
vn -0.238747 0.386119 0.891017
vn 0.00654322 0.995024 0.0994179
vn 0 1 -0
vn 0 1 -0
vn -0.00654322 0.995024 0.0994179
vn 0.0253609 0.922288 0.385671
vn 0.00654322 0.995024 0.0994179
vn -0.00654322 0.995024 0.0994179
vn -0.0253609 0.922288 0.385671
vn 0.0463813 0.706456 0.706235
vn 0.0253609 0.922288 0.385671
vn -0.0253609 0.922288 0.385671
vn -0.0463813 0.706456 0.706235
vn 0.0603956 0.385307 0.92081
vn 0.0463813 0.706456 0.706235
vn -0.0463813 0.706456 0.706235
vn -0.0603956 0.385307 0.92081
vn 0.0650858 0.0992261 0.992934
vn 0.0603956 0.385307 0.92081
vn -0.0603956 0.385307 0.92081
vn -0.0650858 0.0992261 0.992934
vn 0.961138 0.0994448 0.257536
vn 0.965926 0 0.258819
vn 0.991445 0 0.130527
vn 0.986613 0.098604 0.12989
vn -0.986613 0.098604 0.12989
vn -0.991445 0 0.130527
vn -0.965926 0 0.258819
vn -0.961138 0.0994448 0.257536
vn 0.861733 0.0994435 0.497522
vn 0.866025 0 0.5
vn 0.965926 0 0.258819
vn 0.961138 0.0994448 0.257536
vn -0.961138 0.0994448 0.257536
vn -0.965926 0 0.258819
vn -0.866025 0 0.5
vn -0.861733 0.0994435 0.497522
vn 0.703602 0.0994442 0.703602
vn 0.707107 0 0.707107
vn 0.866025 0 0.5
vn 0.861733 0.0994435 0.497522
vn -0.861733 0.0994435 0.497522
vn -0.866025 0 0.5
vn -0.707107 0 0.707107
vn -0.703602 0.0994442 0.703602
vn 0.497522 0.0994453 0.861733
vn 0.5 0 0.866025
vn 0.707107 0 0.707107
vn 0.703602 0.0994442 0.703602
vn -0.703602 0.0994442 0.703602
vn -0.707107 0 0.707107
vn -0.5 0 0.866025
vn -0.497522 0.0994453 0.861733
vn 0.257536 0.0994456 0.961138
vn 0.258819 0 0.965926
vn 0.5 0 0.866025
vn 0.497522 0.0994453 0.861733
vn 0.0650858 0.0992261 0.992934
vn 0.0654032 0 0.997859
vn 0.258819 0 0.965926
vn 0.257536 0.0994456 0.961138
vn -0.497522 0.0994453 0.861733
vn -0.5 0 0.866025
vn -0.258819 0 0.965926
vn -0.257536 0.0994456 0.961138
vn -0.257536 0.0994456 0.961138
vn -0.258819 0 0.965926
vn -0.0654032 0 0.997859
vn -0.0650858 0.0992261 0.992934
vn -0.0650858 0.0992261 0.992934
vn -0.0654032 0 0.997859
vn 0.0654032 0 0.997859
vn 0.0650858 0.0992261 0.992934
g Default
usemtl Default
s off
f 36/42/1 6/63/2 2/64/3
f 8/65/4 7/66/5 4/70/6 5/67/7
f 6/63/8 8/65/9 5/67/10 2/64/11
f 7/66/12 9/68/13 3/71/14 4/70/15
f 9/68/16 10/69/17 1/72/18 3/71/19
f 36/42/20 11/58/21 6/63/22
f 13/59/23 12/60/24 7/66/25 8/65/26
f 11/58/27 13/59/28 8/65/29 6/63/30
f 12/60/31 14/61/32 9/68/33 7/66/34
f 14/61/35 15/62/36 10/69/37 9/68/38
f 36/42/39 16/53/40 11/58/41
f 18/54/42 17/55/43 12/60/44 13/59/45
f 16/53/46 18/54/47 13/59/48 11/58/49
f 17/55/50 19/56/51 14/61/52 12/60/53
f 19/56/54 20/57/55 15/62/56 14/61/57
f 36/42/58 21/48/59 16/53/60
f 23/49/61 22/50/62 17/55/63 18/54/64
f 21/48/65 23/49/66 18/54/67 16/53/68
f 22/50/69 24/51/70 19/56/71 17/55/72
f 24/51/73 25/52/74 20/57/75 19/56/76
f 36/42/77 26/43/78 21/48/79
f 28/44/80 27/45/81 22/50/82 23/49/83
f 26/43/84 28/44/85 23/49/86 21/48/87
f 27/45/88 29/46/89 24/51/90 22/50/91
f 29/46/92 30/47/93 25/52/94 24/51/95
f 36/42/96 31/41/97 26/43/98
f 33/40/99 32/39/100 27/45/101 28/44/102
f 31/41/103 33/40/104 28/44/105 26/43/106
f 32/39/107 34/37/108 29/46/109 27/45/110
f 34/37/111 35/38/112 30/47/113 29/46/114
f 42/10/115 72/35/116 38/9/117
f 40/3/118 43/7/119 44/8/120 41/6/121
f 41/6/122 44/8/123 42/10/124 38/9/125
f 39/2/126 45/5/127 43/7/128 40/3/129
f 37/1/130 46/4/131 45/5/132 39/2/133
f 47/15/134 72/35/135 42/10/136
f 43/7/137 48/13/138 49/14/139 44/8/140
f 44/8/141 49/14/142 47/15/143 42/10/144
f 45/5/145 50/12/146 48/13/147 43/7/148
f 46/4/149 51/11/150 50/12/151 45/5/152
f 52/20/153 72/35/154 47/15/155
f 48/13/156 53/18/157 54/19/158 49/14/159
f 49/14/160 54/19/161 52/20/162 47/15/163
f 50/12/164 55/17/165 53/18/166 48/13/167
f 51/11/168 56/16/169 55/17/170 50/12/171
f 57/25/172 72/35/173 52/20/174
f 53/18/175 58/23/176 59/24/177 54/19/178
f 54/19/179 59/24/180 57/25/181 52/20/182
f 55/17/183 60/22/184 58/23/185 53/18/186
f 56/16/187 61/21/188 60/22/189 55/17/190
f 62/30/191 72/35/192 57/25/193
f 58/23/194 63/28/195 64/29/196 59/24/197
f 59/24/198 64/29/199 62/30/200 57/25/201
f 60/22/202 65/27/203 63/28/204 58/23/205
f 61/21/206 66/26/207 65/27/208 60/22/209
f 67/34/210 72/35/211 62/30/212
f 63/28/213 68/32/214 69/33/215 64/29/216
f 64/29/217 69/33/218 67/34/219 62/30/220
f 65/27/221 70/36/222 68/32/223 63/28/224
f 66/26/225 71/31/226 70/36/227 65/27/228
f 31/41/229 36/42/230 72/35/231 67/34/232
f 33/40/233 31/41/234 67/34/235 69/33/236
f 32/39/237 33/40/238 69/33/239 68/32/240
f 34/37/241 32/39/242 68/32/243 70/36/244
f 35/38/245 34/37/246 70/36/247 71/31/248
f 10/69/249 74/69/250 73/72/251 1/72/252
f 37/1/253 75/1/254 76/4/255 46/4/256
f 15/62/257 77/62/258 74/69/259 10/69/260
f 46/4/261 76/4/262 78/11/263 51/11/264
f 20/57/265 79/57/266 77/62/267 15/62/268
f 51/11/269 78/11/270 80/16/271 56/16/272
f 25/52/273 81/52/274 79/57/275 20/57/276
f 56/16/277 80/16/278 82/21/279 61/21/280
f 30/47/281 83/47/282 81/52/283 25/52/284
f 35/38/285 84/38/286 83/47/287 30/47/288
f 61/21/289 82/21/290 85/26/291 66/26/292
f 66/26/293 85/26/294 86/31/295 71/31/296
f 71/31/297 86/31/298 84/38/299 35/38/300
